<mxfile host="app.diagrams.net" agent="Mozilla/5.0 (Windows NT 10.0; Win64; x64) AppleWebKit/537.36 (KHTML, like Gecko) Chrome/128.0.0.0 Safari/537.36" version="24.7.16">
  <diagram name="Page-1" id="yJukHgZ8KaS-mCmroaK1">
    <mxGraphModel grid="1" page="1" gridSize="10" guides="1" tooltips="1" connect="1" arrows="1" fold="1" pageScale="1" pageWidth="850" pageHeight="1100" math="0" shadow="0">
      <root>
        <mxCell id="0" />
        <mxCell id="1" parent="0" />
        <mxCell id="yo1VhYgDVZnr2qpyQSjq-15" value="Mulai" style="rounded=1;whiteSpace=wrap;arcSize=50;strokeWidth=2;fillColor=#d5e8d4;strokeColor=#82b366;" vertex="1" parent="1">
          <mxGeometry x="153" y="20" width="62" height="34" as="geometry" />
        </mxCell>
        <mxCell id="yo1VhYgDVZnr2qpyQSjq-16" value="Input Transaksi Keuangan" style="whiteSpace=wrap;strokeWidth=2;" vertex="1" parent="1">
          <mxGeometry x="64" y="104" width="240" height="49" as="geometry" />
        </mxCell>
        <mxCell id="yo1VhYgDVZnr2qpyQSjq-17" value="Validasi Transaksi?" style="rhombus;strokeWidth=2;whiteSpace=wrap;fillColor=#fff2cc;strokeColor=#d6b656;" vertex="1" parent="1">
          <mxGeometry x="94" y="203" width="180" height="180" as="geometry" />
        </mxCell>
        <mxCell id="yo1VhYgDVZnr2qpyQSjq-18" value="Catat Transaksi di Buku Besar" style="whiteSpace=wrap;strokeWidth=2;" vertex="1" parent="1">
          <mxGeometry x="147" y="456" width="226" height="67" as="geometry" />
        </mxCell>
        <mxCell id="yo1VhYgDVZnr2qpyQSjq-19" value="Hitung Pajak" style="whiteSpace=wrap;strokeWidth=2;" vertex="1" parent="1">
          <mxGeometry x="185" y="572" width="152" height="49" as="geometry" />
        </mxCell>
        <mxCell id="yo1VhYgDVZnr2qpyQSjq-20" value="Perlu Rekonsiliasi Kas?" style="rhombus;strokeWidth=2;whiteSpace=wrap;fillColor=#DBAF2F;strokeColor=#d6b656;" vertex="1" parent="1">
          <mxGeometry x="156" y="671" width="208" height="208" as="geometry" />
        </mxCell>
        <mxCell id="yo1VhYgDVZnr2qpyQSjq-21" value="Lakukan Rekonsiliasi Kas" style="whiteSpace=wrap;strokeWidth=2;fillColor=#dae8fc;strokeColor=#6c8ebf;" vertex="1" parent="1">
          <mxGeometry x="55" y="952" width="235" height="49" as="geometry" />
        </mxCell>
        <mxCell id="yo1VhYgDVZnr2qpyQSjq-22" value="Generate Laporan Keuangan" style="whiteSpace=wrap;strokeWidth=2;" vertex="1" parent="1">
          <mxGeometry x="166" y="1051" width="189" height="67" as="geometry" />
        </mxCell>
        <mxCell id="yo1VhYgDVZnr2qpyQSjq-23" value="Tutup Periode Akuntansi" style="whiteSpace=wrap;strokeWidth=2;" vertex="1" parent="1">
          <mxGeometry x="144" y="1168" width="233" height="49" as="geometry" />
        </mxCell>
        <mxCell id="yo1VhYgDVZnr2qpyQSjq-24" value="Selesai" style="rounded=1;whiteSpace=wrap;arcSize=50;strokeWidth=2;fillColor=#f8cecc;strokeColor=#b85450;" vertex="1" parent="1">
          <mxGeometry x="148" y="1267" width="73" height="34" as="geometry" />
        </mxCell>
        <mxCell id="yo1VhYgDVZnr2qpyQSjq-25" value="" style="curved=1;startArrow=none;endArrow=block;exitX=0.5;exitY=1;entryX=0.5;entryY=0;rounded=0;" edge="1" parent="1" source="yo1VhYgDVZnr2qpyQSjq-15" target="yo1VhYgDVZnr2qpyQSjq-16">
          <mxGeometry relative="1" as="geometry">
            <Array as="points" />
          </mxGeometry>
        </mxCell>
        <mxCell id="yo1VhYgDVZnr2qpyQSjq-26" value="" style="curved=1;startArrow=none;endArrow=block;exitX=0.5;exitY=1;entryX=0.5;entryY=0;rounded=0;" edge="1" parent="1" source="yo1VhYgDVZnr2qpyQSjq-16" target="yo1VhYgDVZnr2qpyQSjq-17">
          <mxGeometry relative="1" as="geometry">
            <Array as="points" />
          </mxGeometry>
        </mxCell>
        <mxCell id="yo1VhYgDVZnr2qpyQSjq-27" value="Ya" style="curved=1;startArrow=none;endArrow=block;exitX=0.8;exitY=1;entryX=0.5;entryY=-0.01;rounded=0;" edge="1" parent="1" source="yo1VhYgDVZnr2qpyQSjq-17" target="yo1VhYgDVZnr2qpyQSjq-18">
          <mxGeometry relative="1" as="geometry">
            <Array as="points">
              <mxPoint x="260" y="419" />
            </Array>
          </mxGeometry>
        </mxCell>
        <mxCell id="yo1VhYgDVZnr2qpyQSjq-28" value="" style="curved=1;startArrow=none;endArrow=block;exitX=0.5;exitY=0.99;entryX=0.5;entryY=0;rounded=0;" edge="1" parent="1" source="yo1VhYgDVZnr2qpyQSjq-18" target="yo1VhYgDVZnr2qpyQSjq-19">
          <mxGeometry relative="1" as="geometry">
            <Array as="points" />
          </mxGeometry>
        </mxCell>
        <mxCell id="yo1VhYgDVZnr2qpyQSjq-29" value="" style="curved=1;startArrow=none;endArrow=block;exitX=0.5;exitY=1;entryX=0.5;entryY=0;rounded=0;" edge="1" parent="1" source="yo1VhYgDVZnr2qpyQSjq-19" target="yo1VhYgDVZnr2qpyQSjq-20">
          <mxGeometry relative="1" as="geometry">
            <Array as="points" />
          </mxGeometry>
        </mxCell>
        <mxCell id="yo1VhYgDVZnr2qpyQSjq-30" value="Tidak" style="curved=1;startArrow=none;endArrow=block;exitX=0;exitY=0.88;entryX=0;entryY=0.22;rounded=0;" edge="1" parent="1" source="yo1VhYgDVZnr2qpyQSjq-17" target="yo1VhYgDVZnr2qpyQSjq-24">
          <mxGeometry relative="1" as="geometry">
            <Array as="points">
              <mxPoint x="20" y="419" />
              <mxPoint x="20" y="1242" />
            </Array>
          </mxGeometry>
        </mxCell>
        <mxCell id="yo1VhYgDVZnr2qpyQSjq-31" value="Ya" style="curved=1;startArrow=none;endArrow=block;exitX=0.19;exitY=1;entryX=0.5;entryY=0;rounded=0;" edge="1" parent="1" source="yo1VhYgDVZnr2qpyQSjq-20" target="yo1VhYgDVZnr2qpyQSjq-21">
          <mxGeometry relative="1" as="geometry">
            <Array as="points">
              <mxPoint x="173" y="916" />
            </Array>
          </mxGeometry>
        </mxCell>
        <mxCell id="yo1VhYgDVZnr2qpyQSjq-32" value="" style="curved=1;startArrow=none;endArrow=block;exitX=0.5;exitY=1;entryX=0.24;entryY=0;rounded=0;" edge="1" parent="1" source="yo1VhYgDVZnr2qpyQSjq-21" target="yo1VhYgDVZnr2qpyQSjq-22">
          <mxGeometry relative="1" as="geometry">
            <Array as="points">
              <mxPoint x="173" y="1026" />
            </Array>
          </mxGeometry>
        </mxCell>
        <mxCell id="yo1VhYgDVZnr2qpyQSjq-33" value="Tidak" style="curved=1;startArrow=none;endArrow=block;exitX=0.81;exitY=1;entryX=0.76;entryY=0;rounded=0;" edge="1" parent="1" source="yo1VhYgDVZnr2qpyQSjq-20" target="yo1VhYgDVZnr2qpyQSjq-22">
          <mxGeometry relative="1" as="geometry">
            <Array as="points">
              <mxPoint x="348" y="916" />
              <mxPoint x="348" y="1026" />
            </Array>
          </mxGeometry>
        </mxCell>
        <mxCell id="yo1VhYgDVZnr2qpyQSjq-34" value="" style="curved=1;startArrow=none;endArrow=block;exitX=0.5;exitY=1;entryX=0.5;entryY=-0.01;rounded=0;" edge="1" parent="1" source="yo1VhYgDVZnr2qpyQSjq-22" target="yo1VhYgDVZnr2qpyQSjq-23">
          <mxGeometry relative="1" as="geometry">
            <Array as="points" />
          </mxGeometry>
        </mxCell>
        <mxCell id="yo1VhYgDVZnr2qpyQSjq-35" value="" style="curved=1;startArrow=none;endArrow=block;exitX=0.5;exitY=0.99;entryX=0.92;entryY=-0.01;rounded=0;" edge="1" parent="1" source="yo1VhYgDVZnr2qpyQSjq-23" target="yo1VhYgDVZnr2qpyQSjq-24">
          <mxGeometry relative="1" as="geometry">
            <Array as="points">
              <mxPoint x="260" y="1242" />
            </Array>
          </mxGeometry>
        </mxCell>
      </root>
    </mxGraphModel>
  </diagram>
</mxfile>
